<?xml version="1.0" encoding="UTF-8"?>
<svg width="5894px" height="1177px" viewBox="0 0 5894 1177" version="1.1" xmlns="http://www.w3.org/2000/svg" xmlns:xlink="http://www.w3.org/1999/xlink">
    <title>logo-white copy</title>
    <g id="Page-1" stroke="none" stroke-width="1" fill="none" fill-rule="evenodd">
        <g id="logo-white-copy" transform="translate(-186.4689, -309.5267)" fill="#FFFFFF">
            <path d="M326.475611,1065.5746 C325.461628,1065.23898 324.518534,1064.62608 324.518534,1064.62608 C324.795809,1065.48576 325.180764,1066.44147 325.601611,1067.39089 C325.909396,1066.76273 326.201028,1066.15521 326.475611,1065.5746 L326.475611,1065.5746 Z M326.056558,1072.68272 C326.15347,1072.92142 326.259354,1073.17179 326.373315,1073.43203 C326.594956,1072.9977 326.772627,1072.63875 326.907227,1072.35967 C326.816596,1072.31031 326.726863,1072.26006 326.64072,1072.2116 C326.451383,1072.37582 326.25756,1072.53286 326.056558,1072.68272 L326.056558,1072.68272 Z M352.587918,1052.35086 C353.040172,1053.81089 353.995829,1055.9637 355.071728,1058.19278 C355.573335,1057.16888 356.133269,1055.95473 356.73448,1054.54136 C354.947896,1053.95896 352.587918,1052.35086 352.587918,1052.35086 L352.587918,1052.35086 Z M423.426747,1034.32705 C423.426747,1034.32705 423.730942,1035.01355 424.380609,1036.29859 C424.737747,1036.20257 425.098473,1036.10835 425.456508,1036.01322 C424.732363,1035.52415 424.027061,1034.96329 423.426747,1034.32705 L423.426747,1034.32705 Z M599.715327,1023.18253 C599.715327,1023.18253 599.824801,1023.42752 600.04016,1023.87172 C600.199885,1023.88787 600.361405,1023.90582 600.522027,1023.92197 C600.236676,1023.69224 599.963887,1023.44636 599.715327,1023.18253 L599.715327,1023.18253 Z M1078.56029,1073.83585 C1078.56029,1073.83585 1078.66349,1074.07096 1078.87526,1074.52414 C1078.91384,1074.44068 1078.95153,1074.35812 1078.99012,1074.27557 C1078.84475,1074.13019 1078.70028,1073.98482 1078.56029,1073.83585 L1078.56029,1073.83585 Z M1080.19254,1048.46791 C1080.9113,1046.75392 1081.57891,1045.11442 1082.19807,1043.5476 C1079.30957,1042.46985 1074.39579,1040.34037 1071.98466,1037.58363 C1071.98466,1037.58363 1075.15672,1045.92295 1081.09525,1058.40636 C1083.95684,1051.27311 1085.40962,1046.21729 1085.40962,1046.21729 C1084.07977,1047.54721 1080.19254,1048.46791 1080.19254,1048.46791 L1080.19254,1048.46791 Z M588.411659,1386.45671 C608.212146,1406.25374 631.672842,1421.05865 657.268287,1430.24151 C743.69374,1400.96998 850.097352,1350.32564 861.728545,1269.46125 C864.140569,1252.12393 862.228358,1236.34087 852.617055,1221.60774 C813.943921,1160.39679 655.794871,1137.11884 586.358568,1126.21662 C507.406079,1114.79122 428.212209,1107.64003 348.676456,1103.0643 C344.404267,1102.8615 337.400605,1102.44691 333.323137,1101.81874 C323.062167,1100.58485 313.652764,1097.13444 305.178378,1092.00952 L305.146074,1092.00952 C305.148766,1092.00503 305.151458,1092.00055 305.155047,1091.99516 C304.946867,1091.86953 304.735994,1091.74659 304.527813,1091.61826 C305.068006,1091.2288 305.61807,1090.83396 306.179798,1090.43462 C309.008183,1086.03569 310.180096,1083.39022 310.180096,1083.39022 C308.921142,1084.72462 306.747808,1085.41111 306.747808,1085.41111 C309.912692,1079.8052 311.666972,1075.19089 311.666972,1075.19089 C310.866553,1076.10621 308.844869,1076.71643 308.844869,1076.71643 C311.629284,1072.21609 313.344979,1067.41064 313.344979,1067.41064 C312.582249,1067.82971 311.324192,1068.13482 311.324192,1068.13482 C313.192433,1064.09214 314.146295,1060.77454 314.146295,1060.77454 C313.650072,1061.26989 312.200883,1061.61358 312.200883,1061.61358 C314.984401,1054.97748 315.709444,1051.2785 315.709444,1051.2785 C314.946714,1051.81154 313.840306,1052.11754 313.840306,1052.11754 C315.44204,1047.27351 316.319629,1043.38338 316.319629,1043.38338 C315.518313,1044.2987 314.641621,1044.37498 314.641621,1044.37498 C316.052224,1039.6458 316.700994,1034.19245 316.700994,1034.19245 C316.428206,1034.55409 316.121319,1034.76049 315.785717,1034.84035 C316.624721,1030.64512 316.700994,1026.41219 316.700994,1026.41219 C316.539475,1026.78819 315.934674,1027.33559 315.686114,1027.56263 C316.753936,1023.18971 317.120047,1018.78449 317.120047,1018.78449 C317.768817,1021.64533 319.675643,1026.0694 319.675643,1026.0694 C319.17942,1026.10708 318.684094,1025.91594 318.684094,1025.91594 C318.798054,1028.12798 321.048558,1033.61992 321.048558,1033.61992 C320.247243,1033.3534 319.637058,1032.78087 319.637058,1032.78087 C319.751916,1035.45057 321.887562,1040.63741 321.887562,1040.63741 L320.781154,1039.72208 C321.124831,1042.6592 323.298165,1048.18883 323.298165,1048.18883 C322.535434,1048.03628 321.543885,1047.23582 321.543885,1047.23582 C322.650293,1051.5836 324.785938,1056.69416 324.785938,1056.69416 C323.718116,1056.38906 322.802839,1055.39656 322.802839,1055.39656 C323.978341,1060.001 326.015281,1064.23123 326.578804,1065.35564 C328.603181,1061.05272 329.680874,1058.21791 329.680874,1058.21791 C328.370772,1059.71563 325.062316,1060.71441 325.062316,1060.71441 C329.618958,1053.34964 332.427602,1045.48414 332.427602,1045.48414 C331.179416,1046.17063 329.119146,1046.67047 329.119146,1046.67047 C332.178144,1040.05411 333.738601,1034.62319 333.738601,1034.62319 C332.926517,1035.43531 330.554874,1035.99707 330.554874,1035.99707 C335.111516,1025.13612 336.296889,1019.08152 336.296889,1019.08152 C335.048703,1019.95467 333.238788,1020.45451 333.238788,1020.45451 C335.860787,1012.52709 337.295618,1006.1602 337.295618,1006.1602 C335.985516,1007.65882 334.549788,1007.78355 334.549788,1007.78355 C336.859515,1000.04368 337.920159,991.117476 337.920159,991.117476 C337.474186,991.708847 336.971682,992.048056 336.422516,992.178175 C337.795431,985.312347 337.920159,978.383703 337.920159,978.383703 C337.655447,978.999303 336.666589,979.894885 336.259201,980.267296 C338.006303,973.109821 338.606617,965.900298 338.606617,965.900298 C339.668159,970.581911 342.788175,977.821945 342.788175,977.821945 C341.976989,977.884762 341.165803,977.572475 341.165803,977.572475 C341.353345,981.192492 345.035987,990.181512 345.035987,990.181512 C343.724988,989.74449 342.72626,988.807629 342.72626,988.807629 C342.913802,993.176955 346.408902,1001.66614 346.408902,1001.66614 L344.598988,1000.16842 C345.160716,1004.97476 348.717733,1014.02481 348.717733,1014.02481 C347.469547,1013.77534 345.847174,1012.46517 345.847174,1012.46517 C347.657089,1019.58047 351.15219,1027.94491 351.15219,1027.94491 C349.40419,1027.44507 347.906546,1025.82262 347.906546,1025.82262 C350.153461,1034.62319 354.335917,1042.61343 354.335917,1042.61343 C352.525105,1042.11359 350.71519,1040.92816 350.71519,1040.92816 C352.268468,1045.74707 355.885606,1052.39932 356.883437,1054.19407 C357.42004,1052.91441 357.986256,1051.4813 358.566828,1049.88756 C358.566828,1049.88756 357.11764,1050.91685 355.44053,1051.33683 C355.44053,1051.33683 359.10074,1044.73842 359.939743,1042.03103 C359.939743,1042.03103 358.261736,1043.17519 357.156225,1043.44171 C357.156225,1043.44171 359.978329,1038.4846 361.083839,1035.05213 C361.083839,1035.05213 359.978329,1035.77632 358.871921,1036.08143 C358.871921,1036.08143 361.427517,1031.1997 362.800432,1025.82262 C362.800432,1025.82262 361.885155,1026.81422 360.817332,1027.11933 C360.817332,1027.11933 362.952978,1022.00877 364.058489,1017.66098 C364.058489,1017.66098 363.066939,1018.46233 362.304208,1018.61399 C362.304208,1018.61399 364.478439,1013.08436 364.821219,1010.14724 L363.715709,1011.06346 C363.715709,1011.06346 365.851354,1005.87663 365.965315,1003.20693 C365.965315,1003.20693 365.355131,1003.77856 364.554712,1004.04598 C364.554712,1004.04598 366.804319,998.554035 366.919177,996.342002 C366.919177,996.342002 366.422954,996.532246 365.927627,996.494556 C365.927627,996.494556 367.834454,992.07049 368.482326,989.209654 C368.482326,989.209654 368.849334,993.614875 369.917157,997.988688 C369.667699,997.760755 369.063796,997.213355 368.902277,996.837354 C368.902277,996.837354 368.97855,1001.07118 369.817554,1005.26641 C369.481952,1005.18655 369.175065,1004.97925 368.902277,1004.61761 C368.902277,1004.61761 369.550149,1010.07186 370.961649,1014.80104 C370.961649,1014.80104 370.084061,1014.72386 369.283642,1013.80854 C369.283642,1013.80854 370.160334,1017.69956 371.762068,1022.54271 C371.762068,1022.54271 370.656557,1022.2376 369.893827,1021.70366 C369.893827,1021.70366 370.617972,1025.40264 373.402387,1032.03874 C373.402387,1032.03874 371.953199,1031.69595 371.456976,1031.1997 C371.456976,1031.1997 372.410838,1034.5182 374.279079,1038.56088 C374.279079,1038.56088 373.021022,1038.25577 372.258291,1037.8358 C372.258291,1037.8358 373.973987,1042.64125 376.758402,1047.14159 C376.758402,1047.14159 374.736717,1046.53138 373.936299,1045.61605 C373.936299,1045.61605 374.981688,1048.36113 376.908256,1052.18305 C377.349743,1052.00447 377.799305,1051.8259 378.245278,1051.64732 L377.828917,1051.64732 C377.828917,1051.64732 383.270327,1043.67682 389.55433,1026.43283 C389.55433,1026.43283 386.641596,1028.50218 383.270327,1029.34572 C383.270327,1029.34572 390.626639,1016.08698 392.312722,1010.64529 C392.312722,1010.64529 388.941453,1012.94437 386.718766,1013.481 C386.718766,1013.481 392.389893,1003.51832 394.611682,996.620189 C394.611682,996.620189 392.389893,998.076631 390.167206,998.689539 C390.167206,998.689539 395.301729,988.879419 398.061019,978.074108 C398.061019,978.074108 396.221493,980.066284 394.075976,980.679192 C394.075976,980.679192 398.367009,970.409615 400.589696,961.672757 C400.589696,961.672757 398.596725,963.28265 397.064086,963.588656 C397.064086,963.588656 401.432289,952.476442 402.122335,946.575294 L399.899649,948.414019 C399.899649,948.414019 404.191579,937.991887 404.421295,932.626473 C404.421295,932.626473 403.195542,933.776012 401.585732,934.312644 C401.585732,934.312644 406.107379,923.276707 406.337095,918.832001 C406.337095,918.832001 405.341059,919.215181 404.345022,919.138006 C404.345022,919.138006 408.176622,910.247697 409.479545,904.5 C409.479545,904.5 410.216253,913.35262 412.36177,922.139731 C411.861059,921.682966 410.646972,920.58368 410.322138,919.828089 C410.322138,919.828089 410.475582,928.335218 412.161665,936.765174 C411.486873,936.604543 410.870407,936.189058 410.322138,935.462183 C410.322138,935.462183 411.625061,946.421843 414.460625,955.92506 C414.460625,955.92506 412.698268,955.771609 411.088458,953.931987 C411.088458,953.931987 412.850814,961.749931 416.069538,971.482877 C416.069538,971.482877 413.847748,970.869969 412.315108,969.796707 C412.315108,969.796707 413.770578,977.230574 419.365431,990.56559 C419.365431,990.56559 416.452698,989.876404 415.456661,988.879419 C415.456661,988.879419 417.372461,995.547824 421.127788,1003.67088 C421.127788,1003.67088 418.599111,1003.05797 417.066471,1002.21533 C417.066471,1002.21533 420.514911,1011.872 426.108867,1020.91486 C426.108867,1020.91486 422.047551,1019.68905 420.437741,1017.84943 C420.437741,1017.84943 423.31817,1025.42328 428.566654,1035.19661 C430.665509,1034.65549 432.791285,1034.12784 434.935904,1033.60915 C436.964767,1030.05823 437.855816,1028.04542 437.855816,1028.04542 C435.809903,1030.21527 432.277114,1031.33161 432.277114,1031.33161 C437.422405,1022.21875 440.273223,1014.71848 440.273223,1014.71848 C438.971197,1016.20543 435.686072,1017.19793 435.686072,1017.19793 C440.211307,1009.88252 443.001107,1002.07175 443.001107,1002.07175 C441.760996,1002.75376 439.715084,1003.25001 439.715084,1003.25001 C442.752546,996.679416 444.302235,991.286183 444.302235,991.286183 C443.496433,992.092027 441.140941,992.649298 441.140941,992.649298 C445.666177,981.863729 446.844372,975.850409 446.844372,975.850409 C445.604261,976.718172 443.806909,977.214421 443.806909,977.214421 C446.410064,969.341737 447.835921,963.018822 447.835921,963.018822 C446.533895,964.506672 445.108038,964.63051 445.108038,964.63051 C447.401614,956.943583 448.455977,948.079297 448.455977,948.079297 C448.012695,948.666181 447.51378,949.002698 446.968203,949.132817 C448.331248,942.313653 448.455977,935.432569 448.455977,935.432569 C448.193059,936.043683 447.210482,936.932983 446.805786,937.302702 C448.541223,930.19548 449.13705,923.035313 449.13705,923.035313 C450.191413,927.68462 453.290791,934.875299 453.290791,934.875299 C452.484989,934.937218 451.679186,934.626725 451.679186,934.626725 C451.864934,938.222513 455.522451,947.148718 455.522451,947.148718 C454.220425,946.715285 453.228876,945.785603 453.228876,945.785603 C453.414623,950.124418 456.885496,958.555271 456.885496,958.555271 L455.088144,957.067421 C455.646283,961.840566 459.179072,970.829587 459.179072,970.829587 C457.939859,970.581014 456.328254,969.279818 456.328254,969.279818 C458.125606,976.346658 461.596479,984.652775 461.596479,984.652775 C459.861043,984.157424 458.373269,982.545735 458.373269,982.545735 C460.604929,991.286183 464.757773,999.220786 464.757773,999.220786 C462.960421,998.724537 461.163069,997.547179 461.163069,997.547179 C462.960421,1003.12617 467.547572,1011.18461 467.547572,1011.18461 C465.75022,1010.75028 463.022337,1008.89092 463.022337,1008.89092 C464.386278,1013.29255 470.336474,1024.0162 470.336474,1024.0162 C467.609488,1023.33419 465.253997,1021.66058 465.253997,1021.66058 C465.963785,1023.60969 466.660113,1025.40623 467.33311,1027.06459 C469.945238,1026.63654 472.5798,1026.22374 475.24846,1025.83428 C477.382311,1021.57444 480.11827,1015.51445 483.031901,1007.52062 C483.031901,1007.52062 480.021358,1009.65907 476.536128,1010.53042 C476.536128,1010.53042 484.140104,996.826586 485.882719,991.201829 C485.882719,991.201829 482.397489,993.578083 480.101221,994.132661 C480.101221,994.132661 485.962581,983.835265 488.259746,976.705609 C488.259746,976.705609 485.962581,978.210509 483.665416,978.844057 C483.665416,978.844057 488.972226,968.7046 491.823942,957.535851 C491.823942,957.535851 489.922499,959.59533 487.705196,960.228878 C487.705196,960.228878 492.140699,949.613811 494.437864,940.583511 C494.437864,940.583511 492.378492,942.247247 490.794704,942.564021 C490.794704,942.564021 495.309172,931.077601 496.022549,924.978133 L493.725384,926.879674 C493.725384,926.879674 498.160887,916.105771 498.398679,910.560881 C498.398679,910.560881 497.130752,911.749008 495.467999,912.303586 C495.467999,912.303586 500.141295,900.897033 500.379087,896.302465 C500.379087,896.302465 499.348952,896.698208 498.318817,896.619239 C498.318817,896.619239 502.279632,887.430103 503.626525,881.489471 C503.626525,881.489471 504.387461,890.639122 506.605661,899.722367 C506.088799,899.24945 504.833434,898.113371 504.497832,897.331756 C504.497832,897.331756 504.65666,906.125149 506.399275,914.838675 C505.702049,914.67266 505.064048,914.242817 504.497832,913.491713 C504.497832,913.491713 505.844725,924.820194 508.775405,934.641981 C508.775405,934.641981 506.952928,934.484042 505.290175,932.582502 C505.290175,932.582502 507.111755,940.66248 510.438158,950.722968 C510.438158,950.722968 508.14189,950.089421 506.557205,948.980263 C506.557205,948.980263 508.062028,956.664498 513.844423,970.447305 C513.844423,970.447305 510.834778,969.734788 509.804643,968.7046 C509.804643,968.7046 511.78505,975.596451 515.6669,983.993204 C515.6669,983.993204 513.052978,983.359656 511.468293,982.488303 C511.468293,982.488303 515.032488,992.469823 520.814883,1001.8169 C520.814883,1001.8169 516.617173,1000.5489 514.953523,998.64826 C514.953523,998.64826 518.597581,1008.23314 525.171421,1019.8775 C525.171421,1019.8775 520.656953,1018.45157 518.043031,1015.67957 C518.043031,1015.67957 518.952026,1017.73366 520.999733,1021.4174 C523.902596,1021.27471 526.830585,1021.15446 529.788185,1021.06114 C531.301981,1018.32683 531.98126,1016.79591 531.98126,1016.79591 C529.974829,1018.92448 526.508443,1020.01928 526.508443,1020.01928 C531.555925,1011.07962 534.352903,1003.72203 534.352903,1003.72203 C533.076002,1005.18206 529.852792,1006.15481 529.852792,1006.15481 C534.291885,998.979392 537.027844,991.316694 537.027844,991.316694 C535.811962,991.986137 533.805532,992.472515 533.805532,992.472515 C536.784668,986.026659 538.304745,980.736624 538.304745,980.736624 C537.514197,981.527213 535.203572,982.073715 535.203572,982.073715 C539.642664,971.493646 540.798425,965.59519 540.798425,965.59519 C539.581646,966.445903 537.818392,966.932281 537.818392,966.932281 C540.372194,959.209458 541.771131,953.007689 541.771131,953.007689 C540.49423,954.466823 539.095293,954.587969 539.095293,954.587969 C541.344899,947.048211 542.378624,938.352633 542.378624,938.352633 C541.944316,938.928748 541.455271,939.258983 540.919565,939.38641 C542.257484,932.697366 542.378624,925.947299 542.378624,925.947299 C542.12109,926.546747 541.158255,927.418997 540.760737,927.781537 C542.462973,920.808921 543.048032,913.785155 543.048032,913.785155 C544.081756,918.34652 547.121911,925.3999 547.121911,925.3999 C546.331363,925.460921 545.540815,925.156711 545.540815,925.156711 C545.722973,928.6834 549.310499,937.440001 549.310499,937.440001 C548.033598,937.014644 547.060892,936.102012 547.060892,936.102012 C547.24305,940.359167 550.648418,948.629389 550.648418,948.629389 L548.885164,947.169357 C549.432536,951.851868 552.898025,960.66949 552.898025,960.66949 C551.682142,960.426301 550.101047,959.149334 550.101047,959.149334 C551.8643,966.081568 555.269668,974.229747 555.269668,974.229747 C553.567433,973.743369 552.107477,972.162191 552.107477,972.162191 C554.296962,980.736624 558.370841,988.519571 558.370841,988.519571 C556.607588,988.033193 554.844334,986.878269 554.844334,986.878269 C556.607588,992.350471 561.107698,1000.25636 561.107698,1000.25636 C559.343547,999.830105 556.668606,998.005738 556.668606,998.005738 C558.006525,1002.32391 563.843658,1012.84386 563.843658,1012.84386 C561.167819,1012.17442 558.857194,1010.53311 558.857194,1010.53311 C560.403294,1014.77322 561.883889,1018.30619 563.192196,1021.16344 C566.224275,1021.28369 569.285965,1021.43265 572.377267,1021.61123 C572.925536,1020.24183 573.488162,1018.77462 574.060659,1017.20331 C574.060659,1017.20331 571.855021,1018.77103 569.30122,1019.40907 C569.30122,1019.40907 574.87364,1009.36742 576.15054,1005.24667 C576.15054,1005.24667 573.596739,1006.98758 571.913348,1007.39409 C571.913348,1007.39409 576.208867,999.848052 577.891361,994.623526 C577.891361,994.623526 576.208867,995.726402 574.525476,996.191243 C574.525476,996.191243 578.413607,988.760965 580.503489,980.576891 C580.503489,980.576891 579.110832,982.086279 577.48487,982.550222 C577.48487,982.550222 580.735897,974.77266 582.419289,968.155405 C582.419289,968.155405 580.909979,969.374042 579.748834,969.606463 C579.748834,969.606463 583.05729,961.189968 583.579536,956.720136 L581.897043,958.113762 C581.897043,958.113762 585.147172,950.21954 585.321254,946.156219 C585.321254,946.156219 584.392518,947.026674 583.173046,947.433186 C583.173046,947.433186 586.598155,939.074123 586.772237,935.708064 C586.772237,935.708064 586.017582,935.997917 585.262928,935.940485 C585.262928,935.940485 588.164893,929.206571 589.151957,924.853397 C589.151957,924.853397 589.710096,931.557698 591.335161,938.213539 C590.95559,937.867152 590.036724,937.034387 589.790856,936.462758 C589.790856,936.462758 589.906611,942.905921 591.183512,949.290755 C590.672931,949.168712 590.205422,948.853733 589.790856,948.303641 C589.790856,948.303641 590.777021,956.604374 592.924332,963.802231 C592.924332,963.802231 591.590003,963.685573 590.370531,962.292844 C590.370531,962.292844 591.705758,968.213735 594.143804,975.584785 C594.143804,975.584785 592.460413,975.120842 591.299268,974.307819 C591.299268,974.307819 592.402086,979.938856 596.639279,990.038829 C596.639279,990.038829 594.433642,989.515659 593.678987,988.760965 C593.678987,988.760965 595.12997,993.8114 597.974506,999.963814 C597.974506,999.963814 596.058707,999.49987 594.898459,998.860938 C594.898459,998.860938 597.509689,1006.17456 601.746882,1013.02423 C601.746882,1013.02423 598.670835,1012.09545 597.45226,1010.70272 C597.45226,1010.70272 599.718916,1016.66399 603.842148,1024.27285 C608.009349,1024.72692 612.219622,1025.22407 616.464891,1025.75621 C617.590143,1023.7434 618.087264,1022.61988 618.087264,1022.61988 C616.718835,1024.07004 614.357063,1024.81666 614.357063,1024.81666 C617.796529,1018.72347 619.703355,1013.70803 619.703355,1013.70803 C618.832945,1014.70322 616.636281,1015.36639 616.636281,1015.36639 C619.662078,1010.47568 621.52673,1005.25295 621.52673,1005.25295 C620.697597,1005.70882 619.330066,1006.04085 619.330066,1006.04085 C621.360724,1001.64729 622.39714,998.040736 622.39714,998.040736 C621.858742,998.580059 620.283928,998.952471 620.283928,998.952471 C623.308828,991.741153 624.096684,987.720008 624.096684,987.720008 C623.267551,988.300611 622.066026,988.63264 622.066026,988.63264 C623.805949,983.36863 624.759811,979.141089 624.759811,979.141089 C623.8894,980.135382 622.936436,980.217941 622.936436,980.217941 C624.469076,975.078665 625.174377,969.151493 625.174377,969.151493 C624.878258,969.544544 624.544451,969.769785 624.179238,969.855934 C625.090926,965.297261 625.174377,960.696411 625.174377,960.696411 C624.998501,961.104718 624.341655,961.699678 624.071559,961.946457 C625.231806,957.193951 625.630221,952.406447 625.630221,952.406447 C626.334625,955.514959 628.40656,960.323103 628.40656,960.323103 C627.868162,960.364382 627.328867,960.157088 627.328867,960.157088 C627.453596,962.56116 629.89882,968.529611 629.89882,968.529611 C629.02841,968.239758 628.365283,967.617877 628.365283,967.617877 C628.490012,970.519095 630.810508,976.156414 630.810508,976.156414 L629.608983,975.162121 C629.982272,978.353192 632.344045,984.362923 632.344045,984.362923 C631.515809,984.197806 630.438116,983.32735 630.438116,983.32735 C631.639641,988.052038 633.961034,993.605901 633.961034,993.605901 C632.799889,993.274769 631.805647,992.19702 631.805647,992.19702 C633.297907,998.040736 636.074246,1003.34603 636.074246,1003.34603 C634.872721,1003.01489 633.670299,1002.227 633.670299,1002.227 C634.872721,1005.95739 637.939796,1011.34614 637.939796,1011.34614 C636.737373,1011.05539 634.913998,1009.81252 634.913998,1009.81252 C635.825686,1012.75502 639.804448,1019.92596 639.804448,1019.92596 C637.981073,1019.46919 636.406258,1018.35016 636.406258,1018.35016 C638.24758,1023.40329 639.949815,1026.97216 641.12801,1029.19227 C644.843854,1029.75851 648.578542,1030.3445 652.34015,1030.95561 C653.165693,1029.1474 654.097122,1026.9237 655.069828,1024.2549 C655.069828,1024.2549 653.598206,1025.30034 651.895074,1025.7266 C651.895074,1025.7266 655.611815,1019.02768 656.463381,1016.27902 C656.463381,1016.27902 654.760249,1017.44022 653.636792,1017.71123 C653.636792,1017.71123 656.501967,1012.67784 657.625424,1009.19243 C657.625424,1009.19243 656.501967,1009.92828 655.379407,1010.23788 C655.379407,1010.23788 657.973588,1005.28167 659.367142,999.822029 C659.367142,999.822029 658.438405,1000.82889 657.35443,1001.13848 C657.35443,1001.13848 659.52238,995.949849 660.64494,991.535654 C660.64494,991.535654 659.638135,992.349574 658.86374,992.503923 C658.86374,992.503923 661.071172,986.889935 661.419336,983.907953 L660.296776,984.837635 C660.296776,984.837635 662.464725,979.570932 662.581378,976.860855 C662.581378,976.860855 661.961323,977.441458 661.148342,977.712465 C661.148342,977.712465 663.432945,972.137065 663.549597,969.890931 C663.549597,969.890931 663.045298,970.084765 662.542793,970.046177 C662.542793,970.046177 664.478334,965.55391 665.136974,962.65 C665.136974,962.65 665.508469,967.122525 666.593341,971.562744 C666.340294,971.331221 665.72652,970.775745 665.562309,970.39436 C665.562309,970.39436 665.639479,974.692793 666.491943,978.951742 C666.150958,978.870978 665.839584,978.660095 665.562309,978.293068 C665.562309,978.293068 666.220949,983.830779 667.653088,988.631743 C667.653088,988.631743 666.762937,988.554569 665.949956,987.624887 C665.949956,987.624887 666.840107,991.575138 668.466069,996.491864 C668.466069,996.491864 667.343509,996.182269 666.569113,995.640254 C666.569113,995.640254 667.304924,999.396672 670.131514,1006.13418 C670.131514,1006.13418 668.659893,1005.7851 668.15649,1005.28167 C668.15649,1005.28167 669.12471,1008.65042 671.021665,1012.75502 C671.021665,1012.75502 669.743867,1012.44542 668.969471,1012.01917 C668.969471,1012.01917 670.712087,1016.89821 673.538676,1021.46765 C673.538676,1021.46765 671.486482,1020.84756 670.673501,1019.91878 C670.673501,1019.91878 672.454702,1024.60398 675.668041,1030.29604 C675.668041,1030.29604 673.461506,1029.59878 672.183708,1028.24374 C672.183708,1028.24374 673.306268,1030.78421 676.01441,1035.03778 C775.10209,1053.00595 886.810717,1083.59482 984.857494,1100.52114 C989.649236,1091.48186 996.569446,1076.95513 1004.03523,1056.46892 C1004.03523,1056.46892 997.628296,1061.02131 990.210068,1062.87619 C990.210068,1062.87619 1006.39611,1033.70517 1010.10567,1021.73327 C1010.10567,1021.73327 1002.68655,1026.79178 997.796994,1027.97273 C997.796994,1027.97273 1010.27437,1006.05251 1015.16392,990.876979 C1015.16392,990.876979 1010.27437,994.080613 1005.38482,995.42937 C1005.38482,995.42937 1016.68131,973.846567 1022.75085,950.071473 C1022.75085,950.071473 1018.70479,954.456055 1013.98393,955.804812 C1013.98393,955.804812 1023.42564,933.209768 1028.31519,913.987962 C1028.31519,913.987962 1023.93173,917.52901 1020.55957,918.20294 C1020.55957,918.20294 1030.16997,893.753916 1031.68736,880.770672 L1026.79781,884.816943 C1026.79781,884.816943 1036.23951,861.885383 1036.74561,850.082189 C1036.74561,850.082189 1034.04734,852.611894 1030.50737,853.791944 C1030.50737,853.791944 1036.45398,839.273289 1039.38466,828.167356 L953.086623,759.125 L896.728907,789.989369 L1011.23362,904.5 L888.818942,794.321903 L888.818045,794.321903 L888.818942,794.321005 L720.498654,642.825897 L635.349204,703.047042 L691.425158,759.125 L720.498654,730.05 L836.792639,846.35 L720.639535,759.125 L546.057677,904.5 L689.180038,761.370236 L621.200102,713.054586 L621.199205,713.055483 L621.200102,713.054586 L604.204669,700.975 L460.024357,818.462229 L516.984181,875.425 L429.763693,817.275 L313.469708,904.5 L429.763693,788.2 L458.837189,817.275 L604.204669,671.900897 L633.278166,700.975 L720.498654,613.750897 L894.939631,788.2 L953.086623,730.05 L1038.58962,815.558319 C1041.26725,808.946448 1045.89568,796.928782 1047.8734,788.2 C1047.8734,788.2 1049.49487,807.675763 1054.21573,827.010638 C1053.1147,826.004679 1050.44246,823.586249 1049.72818,821.92341 C1049.72818,821.92341 1049.76228,823.77739 1049.9229,826.892184 L1098.4541,875.425 L1050.66769,837.194965 C1051.26172,843.632744 1052.22186,851.42287 1053.77514,859.187869 C1052.29096,858.8352 1050.93329,857.918978 1049.72818,856.321648 C1049.72818,856.321648 1052.59425,880.433258 1058.83339,901.342132 C1058.83339,901.342132 1054.95513,901.004718 1051.41426,896.95755 C1051.41426,896.95755 1055.29252,914.156669 1062.37336,935.570765 C1062.37336,935.570765 1057.4838,934.222008 1054.11254,931.861011 C1054.11254,931.861011 1057.316,948.216596 1069.62378,977.556322 C1069.62378,977.556322 1063.21685,976.038858 1061.02467,973.846567 C1061.02467,973.846567 1065.24033,988.515981 1073.50204,1006.38993 C1073.50204,1006.38993 1067.9377,1005.04027 1064.56553,1003.1854 C1064.56553,1003.1854 1071.51715,1022.64052 1082.90068,1041.75105 C1088.14288,1028.19169 1089.60463,1020.74257 1089.60463,1020.74257 C1087.55782,1022.17478 1084.59125,1022.99319 1084.59125,1022.99319 C1088.88856,1010.00007 1091.24136,999.564481 1091.24136,999.564481 C1089.09316,1002.0197 1086.73946,1002.22431 1086.73946,1002.22431 C1090.52529,989.538093 1092.26432,974.908164 1092.26432,974.908164 C1091.533,975.87733 1090.70925,976.433704 1089.80923,976.647279 C1092.05973,965.39328 1092.26432,954.03698 1092.26432,954.03698 C1091.83091,955.045631 1090.20943,956.513739 1089.54182,957.123955 C1092.4061,945.392552 1093.38957,933.575 1093.38957,933.575 C1095.1286,941.248467 1100.24428,953.116272 1100.24428,953.116272 C1098.91354,953.218573 1097.58369,952.707068 1097.58369,952.707068 C1097.89058,958.640522 1103.92692,973.37365 1103.92692,973.37365 C1101.77871,972.657543 1100.14198,971.122132 1100.14198,971.122132 C1100.44887,978.284094 1106.17742,992.197917 1106.17742,992.197917 L1103.21085,989.742695 C1104.13151,997.620764 1109.96236,1012.4553 1109.96236,1012.4553 C1107.91645,1012.04609 1105.25676,1009.89777 1105.25676,1009.89777 C1108.22334,1021.56098 1113.95279,1035.2702 1113.95279,1035.2702 C1111.08851,1034.45179 1108.63252,1031.79197 1108.63252,1031.79197 C1112.31606,1046.21729 1119.16987,1059.31271 1119.16987,1059.31271 C1116.20329,1058.4943 1113.23672,1056.55058 1113.23672,1056.55058 C1116.20329,1065.75856 1123.77407,1079.05858 1123.77407,1079.05858 C1120.8066,1078.34248 1116.30559,1075.27345 1116.30559,1075.27345 C1118.55609,1082.53681 1128.37737,1100.23667 1128.37737,1100.23667 C1123.87636,1099.11136 1119.98823,1096.34923 1119.98823,1096.34923 C1121.15566,1099.55018 1122.29886,1102.50344 1123.40527,1105.23147 C1134.88122,1100.52293 1145.44549,1093.56108 1154.41071,1084.60706 L1154.45558,1084.56219 C1227.28469,1011.72932 1227.28469,893.216387 1154.45558,820.383512 L720.502243,386.407729 L348.23138,758.69067 L286.541728,820.383512 C286.479813,820.445431 286.420589,820.508248 286.358673,820.570167 C285.41199,821.519591 284.480561,822.477989 283.558106,823.442669 C283.23417,823.781877 282.912925,824.123778 282.591681,824.465678 C281.89625,825.204219 281.207101,825.948144 280.526027,826.695659 C280.217346,827.03397 279.906869,827.371383 279.601777,827.711489 C278.671246,828.747062 277.749688,829.788916 276.846974,830.840641 C276.704298,831.006656 276.566109,831.174465 276.424331,831.34048 C275.646346,832.253112 274.879129,833.172025 274.120885,834.095426 C273.815793,834.46694 273.51429,834.841146 273.212787,835.214454 C272.590937,835.984404 271.976266,836.759737 271.367876,837.537762 C271.090601,837.892226 270.811531,838.244895 270.537846,838.600256 C269.706918,839.6798 268.885861,840.765626 268.081853,841.85863 C267.897003,842.109896 267.718434,842.363853 267.534482,842.616016 C266.894685,843.495445 266.262067,844.378464 265.63932,845.266867 C265.354867,845.673378 265.073105,846.080787 264.791343,846.489093 C264.245767,847.279682 263.708266,848.07386 263.176149,848.871628 C262.924897,849.248526 262.670952,849.624527 262.422392,850.00322 C261.692862,851.115069 260.974101,852.232303 260.270594,853.355819 C260.064208,853.686951 259.864104,854.019877 259.659512,854.351907 C259.138164,855.195441 258.623993,856.042564 258.117002,856.89238 C257.851392,857.340171 257.587577,857.788859 257.325557,858.237547 C256.858048,859.03711 256.399512,859.839364 255.945463,860.644311 C255.717541,861.04813 255.48603,861.450155 255.261697,861.855769 C254.634464,862.988258 254.018895,864.126132 253.416787,865.268492 C253.197838,865.683978 252.986966,866.101258 252.771606,866.516743 C252.359732,867.313613 251.952344,868.111381 251.553032,868.911841 C251.304472,869.409885 251.057706,869.908826 250.814529,870.408665 C250.431369,871.19387 250.056285,871.980869 249.684791,872.769663 C249.474815,873.216556 249.260354,873.662552 249.053968,874.110343 C248.528132,875.250909 248.015757,876.395064 247.515046,877.542809 C247.296995,878.04175 247.087917,878.542486 246.874353,879.042325 C246.55939,879.783558 246.247119,880.525688 245.941129,881.269613 C245.713208,881.82509 245.48708,882.381463 245.264543,882.938734 C244.965732,883.685351 244.675894,884.433763 244.387851,885.183073 C244.192233,885.691885 243.991231,886.1998 243.8001,886.710407 C243.375663,887.843794 242.964685,888.98077 242.562681,890.121336 C242.357193,890.706425 242.158883,891.294207 241.958778,891.881091 C241.729062,892.553226 241.502935,893.226258 241.281294,893.900188 C241.076703,894.523865 240.873906,895.147542 240.675596,895.773013 C240.461134,896.450532 240.253851,897.129846 240.047465,897.808263 C239.761217,898.750508 239.48125,899.694549 239.210256,900.639486 C238.989513,901.406743 238.769667,902.174897 238.559692,902.943949 C238.374842,903.618776 238.198965,904.295398 238.022191,904.97202 C237.86785,905.563391 237.716201,906.15566 237.567245,906.747928 C237.391368,907.447882 237.218183,908.148733 237.050383,908.850481 C236.913988,909.42211 236.784773,909.993739 236.65466,910.566265 C236.36213,911.845027 236.083958,913.125583 235.819246,914.408832 C235.712463,914.925721 235.602092,915.441712 235.499796,915.958601 C235.349045,916.723166 235.206369,917.489525 235.064591,918.254988 C234.972166,918.754826 234.881536,919.253768 234.793597,919.753606 C234.655408,920.539708 234.518117,921.32581 234.389799,922.113707 C234.323396,922.521116 234.262378,922.928525 234.198667,923.335934 C233.951902,924.910829 233.724877,926.488417 233.518491,928.068698 C233.473625,928.415982 233.425169,928.76237 233.3812,929.110552 C233.275315,929.962162 233.177506,930.813772 233.082389,931.667177 C233.03842,932.06651 232.995348,932.46674 232.95407,932.866073 C232.862543,933.742809 232.77281,934.619546 232.693845,935.497181 C232.679487,935.653324 232.667822,935.810365 232.654362,935.966508 C232.487459,937.868947 232.350167,939.774077 232.240693,941.679208 C232.22813,941.902654 232.212876,942.126101 232.201211,942.349548 C232.15096,943.280127 232.109683,944.212502 232.07379,945.143978 C232.062124,945.439215 232.052254,945.73535 232.041486,946.030586 C231.93128,949.100512 231.905989,952.172231 231.951753,955.243054 C231.953547,955.369584 231.953547,955.496114 231.956239,955.622644 C231.972391,956.625014 231.998414,957.627383 232.031615,958.629753 C232.037896,958.818202 232.045075,959.006651 232.051356,959.1951 C232.165317,962.369121 232.357346,965.541347 232.631929,968.707292 C232.636416,968.767416 232.640902,968.826643 232.646286,968.88587 C232.738711,969.945671 232.841007,971.003678 232.952276,972.061685 C232.960352,972.145141 232.970222,972.2277 232.978298,972.311156 C233.323771,975.56953 233.753592,978.820725 234.268659,982.060255 C234.270454,982.066536 234.271351,982.073715 234.272248,982.080894 C236.372898,995.266048 239.885048,1008.26814 244.808699,1020.84038 C244.808699,1020.84038 244.808699,1020.84038 244.808699,1020.84038 C244.810493,1020.84487 244.812288,1020.85025 244.814083,1020.85564 C244.81498,1020.85564 244.81498,1020.85653 244.81498,1020.85653 C247.016131,1026.47591 249.499941,1032.00913 252.265512,1037.43467 C252.265512,1037.43467 252.265512,1037.43467 252.265512,1037.43467 C260.563124,1053.71039 271.40018,1069.01335 284.775783,1082.75218 C284.77668,1082.75308 284.77668,1082.75308 284.777577,1082.75398 C285.364431,1083.35702 285.943209,1083.96544 286.539934,1084.56219 L297.478388,1095.50121 C297.478388,1095.50121 297.479285,1095.50121 297.479285,1095.50211 L298.264449,1096.28731 C298.30124,1096.2595 298.340722,1096.22988 298.376615,1096.20206 C310.268932,1105.39658 324.612754,1110.8993 339.692386,1112.96416 C420.567854,1123.73447 501.4837,1137.20769 581.01048,1155.06099 C641.161211,1169.02507 702.484752,1184.45725 758.479946,1210.17876 C771.631217,1216.44424 783.986555,1223.12431 795.162802,1231.73374 C798.570862,1234.40613 801.682803,1237.16466 804.193532,1239.89089 C806.732079,1242.60456 808.642495,1245.2922 809.746211,1247.52308 C810.694689,1249.30976 811.044648,1250.86312 811.080541,1252.53224 C807.257915,1311.02324 671.432643,1354.79637 578.226065,1376.27059 L588.411659,1386.45671 Z M1186.15556,1116.26561 L999.513587,1302.91724 L884.282938,1418.15654 C861.443194,1440.99746 834.667761,1458.46669 805.492866,1469.96029 C778.78563,1480.48293 750.067476,1486 720.498654,1486 C718.739887,1486 716.985607,1485.97308 715.233121,1485.93449 C714.802402,1485.92462 714.372581,1485.91206 713.94276,1485.89949 C712.536644,1485.86091 711.133219,1485.80976 709.73159,1485.74604 C709.342149,1485.72809 708.952707,1485.71374 708.564163,1485.69399 C706.82424,1485.60605 705.087906,1485.50196 703.355162,1485.37632 C703.120061,1485.35838 702.885858,1485.33684 702.64986,1485.31889 C701.165676,1485.20672 699.684184,1485.07929 698.205384,1484.9384 C697.710058,1484.89174 697.214732,1484.84238 696.719406,1484.79213 C695.367129,1484.65483 694.018442,1484.50587 692.672447,1484.34614 C692.288389,1484.30037 691.904332,1484.25909 691.521172,1484.21153 C689.870085,1484.00693 688.223484,1483.78348 686.58137,1483.54388 C686.088736,1483.47209 685.597896,1483.39312 685.106159,1483.31774 C683.917197,1483.13647 682.730029,1482.94713 681.546451,1482.74701 C680.942547,1482.64561 680.338644,1482.54331 679.736536,1482.43652 C678.500912,1482.21846 677.269775,1481.98873 676.039536,1481.75092 C675.515495,1481.64952 674.991454,1481.5517 674.46831,1481.44671 C673.032582,1481.15865 671.602238,1480.85534 670.174586,1480.54036 C669.472874,1480.38601 668.774751,1480.22359 668.074833,1480.06206 C667.155967,1479.85028 666.237999,1479.63311 665.321824,1479.40967 C664.575246,1479.2284 663.828667,1479.04713 663.083883,1478.85868 C662.079771,1478.60293 661.07835,1478.3364 660.078725,1478.06809 C658.871816,1477.74414 657.669393,1477.40941 656.469663,1477.06572 C655.708727,1476.84855 654.947791,1476.63139 654.189547,1476.40615 C653.302985,1476.14232 652.419115,1475.87131 651.536142,1475.59761 C650.899935,1475.40019 650.265522,1475.19828 649.63111,1474.99457 C646.377391,1473.95362 643.148797,1472.83908 639.94802,1471.65454 C639.519994,1471.4957 639.09107,1471.33866 638.663941,1471.17713 C637.615859,1470.78229 636.57047,1470.38026 635.527772,1469.97016 C635.219988,1469.84812 634.913101,1469.72338 634.606214,1469.60134 C631.113805,1468.20772 627.656392,1466.72974 624.236667,1465.16561 C624.039255,1465.07497 623.842739,1464.98524 623.646224,1464.8946 C618.756672,1462.64219 613.944291,1460.21568 609.217156,1457.61867 C609.204593,1457.61149 609.191133,1457.60431 609.17857,1457.59803 C590.15248,1447.1409 572.491228,1433.93511 556.713472,1418.15654 L387.821585,1249.25143 L254.841747,1116.26561 C211.093314,1072.51491 187,1014.34607 187,952.47375 C187,890.601432 211.093314,832.432587 254.841747,788.681891 L720.498654,323 L720.499551,323 L720.502243,323 L987.257852,589.773894 L1186.15556,788.681891 C1204.29419,806.821461 1219.04181,827.444968 1230.10589,849.777978 C1245.72931,881.309098 1254,916.252941 1254,952.472853 C1254,985.341961 1247.19913,1017.16383 1234.26502,1046.33485 C1222.85277,1072.07789 1206.66404,1095.75607 1186.15556,1116.26561 L1186.15556,1116.26561 Z M778.645646,875.425 L691.425158,933.575 L778.645646,846.35 L836.792639,904.5 L778.645646,875.425 Z" id="Fill-37"></path>
            <g id="Group" transform="translate(1326, 310)">
                <path d="M277.69132,697 L0,0.000726037886 L212.926474,0.000726037886 L325.214368,321.063391 C367.561395,442.162154 385.653528,508.956188 397.468266,555.291926 L399.448998,555.291926 C410.346649,512.921807 415.593774,491.120341 481.724092,303.91002 L587.004694,0.000726037886 L793.800332,0.000726037886 L511.155007,697 L277.69132,697 Z" id="Fill-38"></path>
                <path d="M1291.5685,403.996521 C1234.28109,257.031932 1205.28986,177.72391 1188.30345,122.394015 L1186.80013,122.394015 C1171.09503,176.806198 1137.22524,279.029428 1091.09524,403.996521 L1291.5685,403.996521 Z M1043.94802,553.789753 L991.652351,696.999274 L794.464349,696.999274 L1068.16083,0 L1317.98696,0 L1607.05479,696.999274 L1398.64409,696.999274 L1342.53207,553.789753 L1043.94802,553.789753 Z" id="Fill-39"></path>
                <polygon id="Fill-40" points="1764.45344 0.000145207578 1957.71336 0.000145207578 1957.71336 547.206187 2339.13407 547.206187 2314.77325 696.999419 1764.45344 696.999419"></polygon>
                <polygon id="Fill-41" points="2501.53389 0.000145207578 2694.79236 0.000145207578 2694.79236 547.206187 3076.21307 547.206187 3051.85225 696.999419 2501.53389 696.999419"></polygon>
                <polygon id="Fill-42" points="3811.35429 411.627179 3431.06832 411.627179 3431.06832 547.278645 3855.01745 547.278645 3833.11622 696.999274 3238.61376 696.999274 3238.61376 0 3831.93793 0 3831.93793 149.794684 3431.06832 149.794684 3431.06832 261.832495 3811.35429 261.832495"></polygon>
                <path d="M4263.93217,697 L4263.93217,452.020297 C4263.93217,441.815108 4260.96034,436.783666 4254.79613,427.496189 L3968.95987,0.000726037886 L4197.76993,0.000726037886 C4261.18091,105.676992 4335.35169,226.492601 4369.03429,295.220799 C4404.18828,227.776236 4481.18288,106.628102 4544.81588,0.000726037886 L4754,0.000726037886 L4462.29119,435.206711 C4458.32828,441.22847 4458.03661,445.632615 4458.03661,455.140808 L4458.03661,697 L4263.93217,697 Z" id="Fill-43"></path>
            </g>
            <g id="Group" transform="translate(2011, 1158)">
                <path d="M62.0181225,286.44909 L71.1758559,286.44909 C89.582008,286.44909 92.6370636,274.429033 92.6370636,255.360066 L92.6370636,145.896575 C92.6370636,127.84714 88.5919024,118.025401 70.8101412,118.025401 L62.0181225,118.025401 L62.0181225,286.44909 Z M15,79.9008629 L72.7293999,79.9008629 C123.033008,79.9008629 140.386615,102.858935 140.386615,153.458971 L140.386615,245.343351 C140.386615,287.467134 131.487558,324.336978 75.9212268,324.336978 L15,324.336978 L15,79.9008629 Z" id="Fill-44"></path>
                <polygon id="Fill-45" points="425.299163 216.373911 374.964335 216.373911 374.964335 283.003668 433.97225 283.003668 428.334892 324.337127 327.946213 324.337127 327.946213 79.9010117 427.969177 79.9010117 427.969177 121.469633 374.964335 121.469633 374.964335 175.04194 425.299163 175.04194"></polygon>
                <path d="M655.315856,248.997443 L655.315856,265.926137 C655.315856,282.003485 659.301551,289.470625 670.012828,289.470625 C680.832631,289.470625 683.373307,278.400146 683.373307,266.865297 C683.373307,243.797086 679.041224,237.114315 654.111673,216.235493 C626.611713,192.911283 612.469259,179.100719 612.469259,143.094127 C612.469259,108.175533 624.019004,76 670.270018,76 C719.37539,76 726.624271,109.531436 726.624271,137.509772 L726.624271,151.577823 L682.285083,151.577823 L682.285083,136.935262 C682.285083,122.105166 679.851445,114.767513 670.56586,114.767513 C661.901693,114.767513 659.103827,122.233166 659.103827,136.073497 C659.103827,150.79643 661.773842,158.06413 681.966941,173.833386 C717.872392,202.079628 730.757144,217.939674 730.757144,258.194067 C730.757144,296.467442 717.693994,328 669.190714,328 C622.614125,328 609.325005,299.872827 609.325005,263.648934 L609.325005,248.997443 L655.315856,248.997443 Z" id="Fill-46"></path>
                <polygon id="Fill-47" points="914.069694 324.336681 960.959965 324.336681 960.959965 79.9005652 914.069694 79.9005652"></polygon>
                <path d="M1273.69478,324.336681 L1238.3929,324.336681 C1237.29576,320.06953 1236.56433,311.368533 1236.19862,306.238129 C1228.47549,323.404962 1212.79288,327.999553 1197.70194,327.999553 C1159.70032,327.999553 1149.01878,299.695265 1149.01878,259.757895 L1149.01878,144.747257 C1149.01878,107.264205 1164.51557,76.236204 1211.09959,76.236204 C1267.32599,76.236204 1272.98267,117.193106 1272.98267,141.846429 L1272.98267,152.843978 L1225.70736,152.843978 L1225.70736,139.389134 C1225.70736,127.540238 1224.26234,116.56055 1211.22893,116.56055 C1200.479,116.56055 1196.51263,124.431038 1196.51263,140.361038 L1196.51263,265.657784 C1196.51263,282.300712 1201.87347,288.391112 1211.22893,288.391112 C1222.65082,288.391112 1226.54732,279.499604 1226.54732,259.399198 L1226.54732,224.343674 L1210.38748,224.343674 L1210.38748,184.674209 L1273.69478,184.674209 L1273.69478,324.336681 Z" id="Fill-48"></path>
                <path d="M1464.21518,324.336681 L1464.21518,79.9005652 L1516.16896,79.9005652 C1523.92181,109.730431 1548.38753,220.438197 1550.32612,231.170816 L1551.4634,231.170816 C1548.86326,198.648494 1547.19227,154.18202 1547.19227,120.062679 L1547.19227,79.9005652 L1590.78962,79.9005652 L1590.78962,324.336681 L1538.35268,324.336681 C1533.28916,301.079447 1506.59645,174.602425 1505.02507,166.781053 L1503.75845,166.781053 C1505.58851,195.552689 1507.02163,244.164266 1507.02163,282.589455 L1507.02163,324.336681 L1464.21518,324.336681 Z" id="Fill-49"></path>
                <path d="M2037.35519,287.658389 L2046.75079,287.658389 C2063.51271,287.658389 2067.47908,279.895063 2067.47908,261.777163 L2067.47908,239.354904 C2067.47908,220.394588 2062.99982,212.305309 2043.7329,212.305309 L2037.35519,212.305309 L2037.35519,287.658389 Z M2044.78247,176.121602 C2060.62565,176.121602 2066.07569,171.031384 2066.07569,152.328556 L2066.07569,139.698268 C2066.07569,124.033198 2061.05083,116.945591 2046.16654,116.945591 L2037.35519,116.945591 L2037.35519,176.121602 L2044.78247,176.121602 Z M1991.79993,79.9016071 L2049.51892,79.9016071 C2091.00375,79.9016071 2111.0467,97.8796005 2111.0467,135.667768 L2111.0467,145.380856 C2111.0467,178.507455 2098.73431,188.912634 2087.20389,193.307784 C2098.47712,197.960421 2115.05023,207.029046 2115.05023,241.105224 L2115.05023,260.559678 C2115.05023,303.259459 2097.25212,324.336234 2052.64385,324.336234 L1991.79993,324.336234 L1991.79993,79.9016071 Z" id="Fill-50"></path>
                <path d="M2346.66344,79.9008629 L2346.66344,266.043569 C2346.66344,280.300643 2350.99552,287.913644 2361.70531,287.913644 C2373.03949,287.913644 2376.53013,279.242414 2376.53013,266.043569 L2376.53013,79.9008629 L2424.06264,79.9008629 L2424.06264,262.995392 C2424.06264,306.326241 2404.18768,327.742364 2360.97388,327.742364 C2318.54206,327.742364 2299.38812,307.031727 2299.38812,262.609905 L2299.38812,79.9008629 L2346.66344,79.9008629 Z" id="Fill-51"></path>
                <polygon id="Fill-52" points="2614.63849 324.336681 2661.52876 324.336681 2661.52876 79.9005652 2614.63849 79.9005652"></polygon>
                <polygon id="Fill-53" points="2853.42579 79.9008629 2900.44391 79.9008629 2900.44391 283.20296 2959.47264 283.20296 2955.27882 324.336978 2853.42579 324.336978"></polygon>
                <path d="M3183.63151,286.44909 L3192.78924,286.44909 C3211.19391,286.44909 3214.25045,274.429033 3214.25045,255.360066 L3214.25045,145.896575 C3214.25045,127.84714 3210.20529,118.025401 3192.42353,118.025401 L3183.63151,118.025401 L3183.63151,286.44909 Z M3136.61338,79.9008629 L3194.3413,79.9008629 C3244.64639,79.9008629 3262,102.858935 3262,153.458971 L3262,245.343351 C3262,287.467134 3253.10094,324.336978 3197.53461,324.336978 L3136.61338,324.336978 L3136.61338,79.9008629 Z" id="Fill-54"></path>
            </g>
        </g>
    </g>
</svg>