<?xml version="1.0" encoding="UTF-8" standalone="no"?>
<svg width="3131px" height="1972px" viewBox="0 0 3131 1972" version="1.1" xmlns="http://www.w3.org/2000/svg" xmlns:xlink="http://www.w3.org/1999/xlink" xmlns:sketch="http://www.bohemiancoding.com/sketch/ns">
    <!-- Generator: Sketch 3.3.3 (12081) - http://www.bohemiancoding.com/sketch -->
    <title>Slice 2</title>
    <desc>Created with Sketch.</desc>
    <defs></defs>
    <g id="Page-1" stroke="none" stroke-width="1" fill="none" fill-rule="evenodd" sketch:type="MSPage">
        <g id="White-Copy" sketch:type="MSLayerGroup" transform="translate(124.872310, 112.909615)" fill="#FFFFFF">
            <path d="M792.709753,291.462277 L580.773057,291.462277 L786.981735,1628 L1100.11343,1628 L1306.32211,291.462277 L1113.47881,291.462277 L953.09428,1381.69519 L792.709753,291.462277 Z M1403.69843,1628 L1735.92352,1628 C1945.95087,1628 2049.05521,1511.53028 2049.05521,1297.68425 L2049.05521,621.778029 C2049.05521,407.931993 1945.95087,291.462277 1735.92352,291.462277 L1403.69843,291.462277 L1403.69843,1628 Z M1732.10484,482.396238 C1798.93172,482.396238 1839.02786,516.764351 1839.02786,612.231331 L1839.02786,1307.23095 C1839.02786,1402.69793 1798.93172,1437.06604 1732.10484,1437.06604 L1613.72578,1437.06604 L1613.72578,482.396238 L1732.10484,482.396238 Z M2499.65936,291.462277 L2182.70898,291.462277 L2182.70898,1628 L2513.02474,1628 C2723.05209,1628 2831.88445,1517.2583 2831.88445,1311.04963 L2831.88445,1202.21727 C2831.88445,1060.92614 2787.96964,959.731139 2675.3186,915.816328 C2768.87624,871.901517 2810.88171,784.071895 2810.88171,646.599444 L2810.88171,598.865954 C2810.88171,392.657276 2717.32407,291.462277 2499.65936,291.462277 L2499.65936,291.462277 Z M2486.29398,1026.55802 C2581.76096,1026.55802 2621.85709,1064.74482 2621.85709,1188.85189 L2621.85709,1305.32161 C2621.85709,1404.60727 2583.6703,1437.06604 2513.02474,1437.06604 L2392.73634,1437.06604 L2392.73634,1026.55802 L2486.29398,1026.55802 Z M2493.93134,482.396238 C2568.39558,482.396238 2600.85436,524.401709 2600.85436,619.868689 L2600.85436,694.332934 C2600.85436,801.255952 2553.12087,835.624064 2474.83794,835.624064 L2392.73634,835.624064 L2392.73634,482.396238 L2493.93134,482.396238 Z" id="VDB" sketch:type="MSShapeGroup"></path>
            <path d="M279.102918,1669.70618 L279.102918,1715.83758 L2846.91843,1715.83758 L2846.91843,1669.70618 L279.102918,1669.70618 Z" id="Rectangle-1" sketch:type="MSShapeGroup"></path>
            <path d="M395.453513,511.236187 L365.306996,493.472208 L426.540477,688.87598 L387.815978,671.112001 L466.50943,888.720747 L414.549791,862.074778 L510.919379,1097.4475 L458.793763,1079.68352 L550.888332,1270.6463 L481.51227,1235.11834 L590.857286,1457.16808 L516.351339,1426.08112 L636.481568,1714.72844 C636.481568,1714.72844 547.722375,1715.34795 453.321557,1716.00683 C396.509935,1716.40336 337.655036,1716.81414 294.873481,1717.11274 C196.650645,1717.79831 0.204974112,1719.16943 0.204974112,1719.16943 L121.855272,1511.39679 L35.2125036,1566.48421 L159.089822,1328.37923 L89.0248706,1359.4662 L198.369887,1137.41646 L142.316808,1159.62143 L212.206404,981.981638 L168.962777,999.745618 L252.009381,764.372892 L204.490736,777.695876 L265.420209,573.410115 L222.254715,600.056084 L279.047202,360.242363 L248.900684,373.565348 L280.180735,191.48456 L253.341679,204.807544 L279.987648,0.521782544 L343.102007,169.279586 L321.700039,163.541855 L373.248539,342.478384 L341.968489,324.714405 L395.453513,511.236187 Z" id="Triangle-1" sketch:type="MSShapeGroup"></path>
        </g>
    </g>
</svg>