<?xml version="1.0" encoding="UTF-8"?>
<svg width="303px" height="35px" viewBox="0 0 303 35" version="1.1" xmlns="http://www.w3.org/2000/svg" xmlns:xlink="http://www.w3.org/1999/xlink">
    <!-- Generator: Sketch 60.1 (88133) - https://sketch.com -->
    <title>Group 10</title>
    <desc>Created with Sketch.</desc>
    <g id="Page-1" stroke="none" stroke-width="1" fill="none" fill-rule="evenodd">
        <g id="Artboard" transform="translate(-21.000000, -20.000000)" fill="#FFFFFF">
            <g id="Group-9" transform="translate(0.000000, -1.000000)">
                <g id="Group-10" transform="translate(21.000000, 21.000000)">
                    <path d="M29.2845848,34 L34.2170317,1.4272374 L29.5172473,1.4272374 L26.166906,26.6943947 L26.073841,26.6943947 L22.7234997,1.4272374 L17.5583902,1.4272374 L22.4908371,34 L29.2845848,34 Z M37.7983592,34 L38.7290095,27.625045 L44.5455743,27.625045 L44.5455743,27.53198 L45.4762246,34 L50.5948016,34 L45.2900946,1.4272374 L38.3567494,1.4272374 L33.0520423,34 L37.7983592,34 Z M43.9406515,23.2044558 L39.3339323,23.2044558 L41.5674931,7.1042046 L41.6605582,7.1042046 L43.9406515,23.2044558 Z M65.6231286,34 L65.6231286,29.3467482 L57.2007428,29.3467482 L57.2007428,1.4272374 L52.0821658,1.4272374 L52.0821658,34 L65.6231286,34 Z M80.6514555,34 L80.6514555,29.3467482 L72.2290697,29.3467482 L72.2290697,1.4272374 L67.1104928,1.4272374 L67.1104928,34 L80.6514555,34 Z M96.0985751,34 L96.0985751,29.3467482 L87.2573967,29.3467482 L87.2573967,19.3422568 L94.2838069,19.3422568 L94.2838069,14.689005 L87.2573967,14.689005 L87.2573967,6.0804892 L96.0985751,6.0804892 L96.0985751,1.4272374 L82.1388197,1.4272374 L82.1388197,34 L96.0985751,34 Z M107.869626,34 L107.869626,20.1333096 L114.058451,1.4272374 L109.079471,1.4272374 L105.589532,13.3860945 L105.496467,13.3860945 L102.006529,1.4272374 L96.5622239,1.4272374 L102.751049,20.1333096 L102.751049,34 L107.869626,34 Z" id="VALLEY" fill-rule="nonzero"></path>
                    <path d="M131.725296,34 C134.269074,34 136.176907,33.3175231 137.448796,31.9525692 C138.720685,30.5876153 139.356629,28.5867171 139.356629,25.9498744 L139.356629,25.9498744 L139.356629,9.47736301 C139.356629,6.84052033 138.720685,4.83962205 137.448796,3.47466819 C136.176907,2.10971433 134.269074,1.4272374 131.725296,1.4272374 L131.725296,1.4272374 L123.907833,1.4272374 L123.907833,34 L131.725296,34 Z M131.632231,29.3467482 L129.02641,29.3467482 L129.02641,6.0804892 L131.632231,6.0804892 C132.469817,6.0804892 133.113516,6.32866263 133.563331,6.82500949 C134.013145,7.32135635 134.238052,8.12791999 134.238052,9.24470042 L134.238052,9.24470042 L134.238052,26.182537 C134.238052,27.2993174 134.013145,28.1058811 133.563331,28.6022279 C133.113516,29.0985748 132.469817,29.3467482 131.632231,29.3467482 L131.632231,29.3467482 Z M155.780932,34 L155.780932,29.3467482 L146.939753,29.3467482 L146.939753,19.3422568 L153.966163,19.3422568 L153.966163,14.689005 L146.939753,14.689005 L146.939753,6.0804892 L155.780932,6.0804892 L155.780932,1.4272374 L141.821176,1.4272374 L141.821176,34 L155.780932,34 Z M164.480836,34.4653252 C166.993592,34.4653252 168.909181,33.7518266 170.227602,32.3248294 C171.546024,30.8978321 172.205234,28.8504013 172.205234,26.182537 C172.205234,24.1351062 171.801952,22.3513597 170.995389,20.8312974 C170.188825,19.3112352 168.715295,17.6205537 166.574799,15.7592529 C164.899629,14.301234 163.744071,13.0603669 163.108127,12.0366515 C162.472182,11.0129361 162.15421,9.91166652 162.15421,8.73284273 C162.15421,6.65439026 163.007306,5.61516402 164.713499,5.61516402 C165.551084,5.61516402 166.187029,5.87109287 166.621332,6.38295057 C167.055636,6.89480826 167.272787,7.70912733 167.272787,8.82590776 L167.272787,8.82590776 L167.272787,10.5010784 L172.112169,10.5010784 L172.112169,9.15163539 C172.112169,6.5147927 171.48398,4.49062817 170.227602,3.07914179 C168.971224,1.66765541 167.117679,0.96191222 164.666966,0.96191222 C162.185232,0.96191222 160.29291,1.66765541 158.989999,3.07914179 C157.687089,4.49062817 157.035633,6.48377102 157.035633,9.05857035 C157.035633,10.9508928 157.454426,12.6493297 158.292011,14.1538811 C159.129597,15.6584325 160.603126,17.3413586 162.712601,19.2026593 C164.387771,20.6606782 165.535573,21.9093007 166.156007,22.948527 C166.77644,23.9877532 167.086657,25.1898433 167.086657,26.5547971 C167.086657,27.7025992 166.86175,28.5324291 166.411936,29.0442868 C165.962121,29.5561445 165.302911,29.8120734 164.434304,29.8120734 C162.666068,29.8120734 161.78195,28.7573363 161.78195,26.6478622 L161.78195,26.6478622 L161.78195,24.4143013 L156.942568,24.4143013 L156.942568,26.275602 C156.942568,28.9124447 157.578513,30.9366092 158.850402,32.3480956 C160.12229,33.759582 161.999102,34.4653252 164.480836,34.4653252 Z M179.276501,34 L179.276501,1.4272374 L174.157924,1.4272374 L174.157924,34 L179.276501,34 Z M189.372381,34.4653252 C191.854115,34.4653252 193.746437,33.759582 195.049348,32.3480956 C196.352258,30.9366092 197.003714,28.9124447 197.003714,26.275602 L197.003714,26.275602 L197.003714,15.6196554 L189.605043,15.6196554 L189.605043,20.2729072 L192.164332,20.2729072 L192.164332,26.6478622 C192.164332,28.7573363 191.280214,29.8120734 189.511978,29.8120734 C187.743742,29.8120734 186.859625,28.7573363 186.859625,26.6478622 L186.859625,26.6478622 L186.859625,8.82590776 C186.859625,6.68541193 187.743742,5.61516402 189.511978,5.61516402 C191.280214,5.61516402 192.164332,6.68541193 192.164332,8.82590776 L192.164332,8.82590776 L192.164332,11.9435865 L197.003714,11.9435865 L197.003714,9.15163539 C197.003714,6.5147927 196.352258,4.49062817 195.049348,3.07914179 C193.746437,1.66765541 191.854115,0.96191222 189.372381,0.96191222 C186.890646,0.96191222 184.998324,1.66765541 183.695413,3.07914179 C182.392503,4.49062817 181.741048,6.5147927 181.741048,9.15163539 L181.741048,9.15163539 L181.741048,26.275602 C181.741048,28.9124447 182.392503,30.9366092 183.695413,32.3480956 C184.998324,33.759582 186.890646,34.4653252 189.372381,34.4653252 Z M203.88885,34 L203.88885,10.2218833 L203.981915,10.2218833 L210.124207,34 L215.382382,34 L215.382382,1.4272374 L210.822195,1.4272374 L210.822195,20.9243624 L210.72913,20.9243624 L205.750151,1.4272374 L199.328663,1.4272374 L199.328663,34 L203.88885,34 Z" id="Design" fill-rule="nonzero"></path>
                    <path d="M236.957959,34 C239.501737,34 241.432836,33.3407893 242.751257,32.022368 C244.069679,30.7039466 244.728889,28.788358 244.728889,26.275602 L244.728889,26.275602 L244.728889,23.4836509 C244.728889,19.8230928 243.457001,17.5585103 240.913223,16.6899033 L240.913223,16.6899033 L240.913223,16.5968383 C242.030003,16.1315131 242.859833,15.371482 243.402713,14.3167449 C243.945592,13.2620078 244.217032,11.897054 244.217032,10.2218833 L244.217032,10.2218833 L244.217032,8.9189728 C244.217032,6.37519515 243.612109,4.49062817 242.402263,3.26527186 C241.192418,2.03991555 239.269074,1.4272374 236.632231,1.4272374 L236.632231,1.4272374 L228.907833,1.4272374 L228.907833,34 L236.957959,34 Z M236.027308,14.689005 L234.02641,14.689005 L234.02641,6.0804892 L236.492634,6.0804892 C237.392262,6.0804892 238.051473,6.34417347 238.470266,6.87154201 C238.889058,7.39891054 239.098455,8.25200671 239.098455,9.4308305 L239.098455,9.4308305 L239.098455,11.2455987 C239.098455,12.4864658 238.842526,13.3705837 238.330668,13.8979522 C237.81881,14.4253208 237.051024,14.689005 236.027308,14.689005 L236.027308,14.689005 Z M236.957959,29.3467482 L234.02641,29.3467482 L234.02641,19.3422568 L236.306504,19.3422568 C237.485327,19.3422568 238.330668,19.6292074 238.842526,20.2031084 C239.354384,20.7770095 239.610312,21.8084803 239.610312,23.2975209 L239.610312,23.2975209 L239.610312,26.1360045 C239.610312,27.3148282 239.393161,28.1446582 238.958857,28.6254942 C238.524554,29.1063302 237.857588,29.3467482 236.957959,29.3467482 L236.957959,29.3467482 Z M254.173314,34.4653252 C256.655048,34.4653252 258.547371,33.759582 259.850281,32.3480956 C261.153192,30.9366092 261.804647,28.9124447 261.804647,26.275602 L261.804647,26.275602 L261.804647,1.4272374 L256.8722,1.4272374 L256.8722,26.6478622 C256.8722,27.7646426 256.647293,28.5712062 256.197479,29.0675531 C255.747664,29.5639 255.103964,29.8120734 254.266379,29.8120734 C253.428794,29.8120734 252.785094,29.5639 252.33528,29.0675531 C251.885465,28.5712062 251.660558,27.7646426 251.660558,26.6478622 L251.660558,26.6478622 L251.660558,1.4272374 L246.541981,1.4272374 L246.541981,26.275602 C246.541981,28.9124447 247.193436,30.9366092 248.496347,32.3480956 C249.799257,33.759582 251.69158,34.4653252 254.173314,34.4653252 Z M269.573901,34 L269.573901,1.4272374 L264.455324,1.4272374 L264.455324,34 L269.573901,34 Z M285.951671,34 L285.951671,29.3467482 L277.529285,29.3467482 L277.529285,1.4272374 L272.410708,1.4272374 L272.410708,34 L285.951671,34 Z M295.256498,34 C297.800276,34 299.708109,33.3175231 300.979998,31.9525692 C302.251887,30.5876153 302.887831,28.5867171 302.887831,25.9498744 L302.887831,25.9498744 L302.887831,9.47736301 C302.887831,6.84052033 302.251887,4.83962205 300.979998,3.47466819 C299.708109,2.10971433 297.800276,1.4272374 295.256498,1.4272374 L295.256498,1.4272374 L287.439035,1.4272374 L287.439035,34 L295.256498,34 Z M295.163433,29.3467482 L292.557612,29.3467482 L292.557612,6.0804892 L295.163433,6.0804892 C296.001019,6.0804892 296.644719,6.32866263 297.094533,6.82500949 C297.544347,7.32135635 297.769254,8.12791999 297.769254,9.24470042 L297.769254,9.24470042 L297.769254,26.182537 C297.769254,27.2993174 297.544347,28.1058811 297.094533,28.6022279 C296.644719,29.0985748 296.001019,29.3467482 295.163433,29.3467482 L295.163433,29.3467482 Z" id="Build" fill-rule="nonzero"></path>
                    <path d="M12,34 L8.16961422,23.4498529 L11.5933945,26.351045 L6.59977628,17 L9.50650948,18.786997 L5.09596501,9.64191802 L8.29794545,11.5506178 L3.855183,3.82372366 L5.40766798,3.8205616 C3.35517549,1.27352053 2.32892925,0 2.32892925,0 C2.04401779,3.31305062 1.90156205,4.96957593 1.90156205,4.96957593 C2.76813412,4.13769008 3.20142016,3.72174716 3.20142016,3.72174716 C2.3208137,9.22663386 1.88051047,11.9790772 1.88051047,11.9790772 C3.03280111,10.2886915 3.60894643,9.44349862 3.60894643,9.44349862 C2.48091363,16.2516819 1.91689723,19.6557736 1.91689723,19.6557736 C3.37051067,17.8531347 4.09731739,16.9518152 4.09731739,16.9518152 C1.8279801,23.222975 0.693311462,26.3585549 0.693311462,26.3585549 C2.46089249,24.482398 3.344683,23.5443195 3.344683,23.5443195 L0,33.5787285 L12,34 Z" id="Path"></path>
                </g>
            </g>
        </g>
    </g>
</svg>