<svg height="35" viewBox="0 0 303 35" width="303" xmlns="http://www.w3.org/2000/svg"><g fill="#fff" fill-rule="evenodd" transform="translate(0 -8)"><g font-family="BebasNeue-Regular, Bebas Neue" font-size="46.532518" letter-spacing="-.978859253"><text><tspan x="17" y="42">VALLE</tspan> <tspan x="96.143431" y="42">Y</tspan></text><text><tspan x="122" y="42">Desig</tspan> <tspan x="197.42083" y="42">n</tspan></text><text><tspan x="227" y="42">Buil</tspan> <tspan x="285.531202" y="42">d</tspan></text></g><path d="m12 42-3.83038578-10.5501471 3.42378028 2.9011921-4.99361822-9.351045 2.9067332 1.786997-4.41054447-9.145079 3.20198044 1.9086998-4.44276245-7.7268941 1.55248498-.0031621c-2.05249249-2.54704107-3.07873873-3.8205616-3.07873873-3.8205616-.28491146 3.3130506-.4273672 4.9695759-.4273672 4.9695759.86657207-.8318858 1.29985811-1.2478287 1.29985811-1.2478287-.88060646 5.5048867-1.32090969 8.25733-1.32090969 8.25733 1.15229064-1.6903857 1.72843596-2.5355786 1.72843596-2.5355786-1.1280328 6.8081833-1.6920492 10.212275-1.6920492 10.212275 1.45361344-1.8026389 2.18042016-2.7039584 2.18042016-2.7039584-2.26933729 6.2711598-3.40400593 9.4067397-3.40400593 9.4067397 1.76758103-1.8761569 2.65137154-2.8142354 2.65137154-2.8142354l-3.344683 10.034409z"/></g></svg>