<svg height="336" viewBox="0 0 249 336" width="249" xmlns="http://www.w3.org/2000/svg" xmlns:xlink="http://www.w3.org/1999/xlink"><mask id="a" fill="#fff"><path d="m0 0h251v336h-251z" fill="none"/></mask><path d="m184.397676 0 15.203805 41.0509185-5.155583-1.3957228 12.41767 43.5269286-7.535144-4.3211494 12.884166 45.3720681-7.262084-4.32115 14.750715 47.532643-9.328459-4.321149 18.956698 52.934079-12.516711-6.481724 23.214755 57.255228-12.556694-4.321149 22.184934 46.452355-16.712205-8.642299 26.340444 54.014367-17.947958-7.562012 29.663975 71.63031-.057189.000403c-1.226922.008648-22.006491.155103-44.064768.310571-13.68552.096457-27.863251.196382-38.169026.269018-23.66119.166765-71.709017-.915558-71.709017-.915558l29.3047-50.541411-20.871633 13.400204 21.087797-40.932299c-1.416155.007863-2.734336.00911-3.871726.001069-3.21219-.022709-7.631223-.053951-11.89684-.084108-2.882987-.020382-5.695894-.040269-8.018765-.056691-6.724949.098764-13.927383.172752-18.98497.137214-5.3536499-.037618-12.7187048-.089369-19.8280658-.139324-2.5752262-.018095-5.1169026-.035954-7.5172772-.052821-.2571662.002039-.5148954.00384-.7728787.005644-9.4199034.065839-19.1786012.134045-26.2721868.183625-16.2862733.11383-49.3581545-.624939-49.3581545-.624939l20.1707677-34.498434-14.36618885 9.146679 20.54002875-39.534796-11.6174304 5.16166 18.1304359-36.868995-9.2941295 3.686899 11.5883546-29.495195-7.1702014 2.949519 13.7699107-39.081134-7.8790398 2.21214 10.1026817-33.919476-7.1572463 4.42428 9.4167304-39.818515-4.9985772 2.21214 5.1865276-30.2325755-4.4501687 2.2121396 4.4181531-33.9194751 10.4649565 28.020436-3.5486483-.9526891 8.5472279 29.7105051-5.1865276-2.94952 8.868322 30.969956-4.9985773-2.94952 10.1530893 32.444716-6.4208874-2.94952 13.0481172 36.131615-8.6153987-4.424279 14.6597181 35.8543 9.1326692-25.424437-4.8459528 2.237922 7.6627089-24.617144-3.7725112 2.237922 6.6930732-23.498183-3.9143605 2.237922 6.4507382-22.542586-2.6782253.722845 7.8980803-21.260261 3.334455 25.736105-3.358618-1.678441 3.914361 22.938702-3.772511-1.678442 7.106966 30.21195-5.401695-3.356883 7.624665 25.736105-5.946445-1.678442 10.392386 29.65247-5.411473-2.237923 8.745928 22.379222-7.014438-2.797402 11.520199 23.551979 6.167533-15.255319-3.901313 2.026505 5.908582-16.549795-2.907572 1.351003 4.597625-14.861041-2.263507 1.351004 4.015844-14.185539-2.348616 1.351004 3.870443-13.608658-1.606935.436371 4.738848-12.834535 2.000673 15.536543-2.015171-1.013253 2.348617 13.847788-2.263507-1.013253 4.26418 18.238551-3.241017-2.026506 4.574799 15.536543-3.567867-1.013253 5.159361 14.80984 16.816652-43.159501-10.417085 4.32115 20.005342-57.255229-11.446907 3.240862 14.677481-49.693217-10.398264 6.481724 13.68091-58.3355154-7.262083 3.2408619 7.535143-44.2917804-6.465339 3.240862zm-55.535922 302.894759-.968754.501241.373.722zm35.874778-26.341203-13.470532 5.387444 1.06307 3.052959-3.246884-1.351003 5.247557 13.510037-4.208662-1.688755 2.691919 5.537762zm-43.619255 13.731128 5.113723 9.895316 2.988-6.276zm9.450263.788792-1.89354.652524.802 1.639zm-49.28054-31.322476-.948.325 1.385 2.818 1.123-2.343zm7.8622212-28.211773-5.2402212 2.704773.7722692 1.888834-8.6429192-2.94952 6.74565 14.006686z" fill="#00121d" fill-rule="evenodd" mask="url(#a)" transform="translate(-2)"/></svg>